<?xml version="1.0" standalone="no"?>
<!DOCTYPE svg PUBLIC "-//W3C//DTD SVG 20010904//EN"
 "http://www.w3.org/TR/2001/REC-SVG-20010904/DTD/svg10.dtd">
<svg version="1.0" xmlns="http://www.w3.org/2000/svg"
 width="1003.000000pt" height="1003.000000pt" viewBox="0 0 1003.000000 1003.000000"
 preserveAspectRatio="xMidYMid meet">
<metadata>
Created by potrace 1.11, written by Peter Selinger 2001-2013
</metadata>
<g transform="translate(0.000000,1003.000000) scale(0.100000,-0.100000)"
fill="#000000" stroke="none">
<path d="M5388 8686 c-20 -6 -45 -22 -56 -36 -33 -44 -148 -285 -144 -302 1
-5 -2 -8 -7 -8 -5 0 -14 -15 -21 -32 -6 -18 -22 -55 -35 -83 -13 -27 -29 -63
-36 -80 -7 -16 -21 -42 -31 -57 -10 -14 -18 -31 -18 -38 0 -23 -33 -81 -52
-91 -10 -6 -42 -12 -71 -14 -267 -20 -232 -26 -293 51 -17 21 -52 65 -78 96
-25 32 -46 60 -46 63 0 3 -8 13 -17 23 -10 10 -29 33 -43 52 -14 18 -40 49
-57 69 -18 20 -33 39 -33 43 0 8 -22 37 -50 66 -8 9 -30 36 -47 61 -59 83
-147 112 -226 77 -18 -8 -75 -31 -127 -51 -52 -21 -108 -43 -125 -50 -57 -24
-146 -59 -155 -61 -7 -1 -61 -24 -90 -39 -14 -7 -37 -15 -53 -19 -15 -4 -45
-24 -67 -46 -36 -36 -40 -45 -40 -88 0 -27 4 -73 10 -103 5 -30 12 -79 15
-109 3 -30 8 -66 10 -80 4 -26 10 -74 21 -150 3 -25 8 -56 10 -70 6 -29 9 -59
19 -161 l7 -75 -78 -63 c-44 -34 -86 -67 -94 -74 -93 -74 -100 -79 -132 -74
-32 4 -202 58 -243 77 -19 9 -255 89 -345 117 -25 8 -56 20 -70 27 -35 19
-106 19 -141 1 -16 -9 -49 -44 -74 -78 -24 -34 -51 -69 -59 -77 -8 -8 -31 -40
-52 -70 -21 -30 -46 -63 -56 -74 -10 -11 -18 -24 -18 -29 0 -5 -12 -23 -26
-41 -66 -81 -164 -244 -164 -275 0 -20 35 -74 80 -122 8 -8 26 -29 40 -45 14
-16 92 -108 175 -204 82 -96 152 -177 155 -180 3 -3 20 -23 37 -45 l31 -40
-25 -80 c-13 -44 -28 -89 -33 -100 -6 -11 -23 -58 -39 -104 -17 -46 -34 -88
-38 -92 -10 -10 -173 -55 -338 -94 -66 -16 -158 -39 -205 -51 -47 -12 -111
-28 -142 -35 -39 -8 -70 -23 -93 -43 -32 -29 -35 -37 -41 -101 -4 -59 -10
-166 -13 -239 -1 -13 -6 -16 -19 -11 -19 7 -40 12 -92 21 -52 9 -278 9 -335 1
-27 -5 -61 -10 -75 -12 -14 -2 -45 -9 -70 -15 -25 -7 -55 -14 -68 -16 -19 -4
-100 -31 -152 -51 -8 -4 -17 -7 -20 -7 -3 -1 -11 -5 -18 -9 -6 -5 -17 -5 -22
-2 -6 3 -10 2 -10 -4 0 -10 -38 -27 -53 -23 -4 1 -7 -3 -7 -8 0 -6 -6 -10 -14
-10 -7 0 -19 -7 -26 -15 -6 -8 -15 -14 -18 -13 -19 2 -29 -5 -45 -31 -16 -27
-16 -29 1 -43 21 -18 48 -30 82 -35 14 -2 39 -8 55 -13 17 -5 50 -12 75 -16
50 -9 59 -11 63 -14 3 -2 37 -9 74 -14 18 -2 36 -7 40 -9 4 -3 24 -8 43 -11
19 -3 53 -10 74 -15 22 -6 43 -8 47 -5 4 2 10 0 14 -6 3 -5 19 -10 35 -10 16
0 35 -7 43 -15 8 -8 17 -12 20 -9 5 5 95 -81 128 -123 10 -12 20 -31 24 -44 4
-13 11 -28 15 -34 9 -11 29 -80 38 -130 7 -39 6 -162 -1 -200 -14 -73 -18 -89
-27 -105 -5 -10 -6 -20 -3 -24 3 -3 1 -6 -5 -6 -7 0 -11 -3 -10 -7 3 -14 -14
-57 -30 -75 -8 -10 -11 -18 -6 -18 5 0 0 -7 -11 -16 -11 -8 -20 -18 -19 -22 1
-18 -85 -99 -139 -130 -50 -28 -88 -26 -232 13 -33 9 -69 18 -80 20 -11 2 -41
10 -67 18 -26 8 -49 13 -52 10 -2 -3 -11 -1 -18 3 -13 9 -27 12 -66 18 -12 1
-25 6 -29 9 -3 4 -18 7 -33 7 -14 0 -31 5 -38 12 -7 7 -12 9 -12 6 0 -3 -28 2
-63 11 -79 21 -109 11 -101 -33 3 -16 14 -41 24 -57 11 -15 20 -30 20 -33 0
-4 18 -25 39 -46 22 -22 41 -43 43 -47 4 -10 72 -70 117 -103 19 -14 40 -31
47 -37 7 -7 14 -13 17 -13 2 0 42 -25 88 -55 46 -31 94 -58 106 -61 13 -4 23
-10 23 -16 0 -5 4 -7 9 -4 5 4 11 3 13 -1 3 -7 71 -42 83 -43 3 0 21 -9 40
-20 20 -11 42 -20 50 -20 8 0 15 -4 15 -8 0 -4 8 -8 17 -9 10 -1 32 -7 48 -13
17 -6 31 -11 32 -11 2 0 21 -6 43 -14 22 -8 42 -14 45 -15 3 0 6 0 8 -1 89
-27 290 -30 372 -5 6 2 12 4 15 4 33 1 207 132 193 146 -3 3 2 8 11 12 9 3 16
11 16 16 0 6 12 21 28 34 15 13 24 24 20 24 -11 0 114 122 163 160 43 33 43
33 18 4 -14 -16 -57 -62 -95 -102 -38 -40 -76 -86 -85 -102 -34 -61 -7 -143
93 -284 16 -21 28 -43 28 -47 0 -4 12 -27 28 -51 30 -48 27 -42 114 -187 73
-121 113 -154 184 -151 71 2 83 4 78 11 -4 7 40 18 84 22 12 1 22 6 22 11 0 4
9 6 20 3 11 -3 18 -1 14 4 -3 5 5 9 18 9 13 0 30 4 38 10 9 6 20 5 29 -3 12
-9 13 -9 7 1 -4 7 -2 12 6 13 27 3 34 4 56 17 12 7 36 15 53 17 17 2 37 9 45
16 7 6 25 9 39 7 13 -3 22 -1 19 3 -3 5 3 9 13 9 11 0 25 6 31 12 10 10 15 10
21 -1 6 -9 10 -10 12 -2 4 11 55 28 104 35 33 5 71 -23 210 -153 33 -31 70
-64 82 -72 43 -30 52 -62 37 -133 -14 -67 -18 -91 -28 -146 -12 -68 -15 -86
-45 -235 -56 -284 -57 -294 -33 -340 17 -34 38 -51 132 -104 61 -35 121 -66
133 -69 12 -3 44 -18 70 -34 26 -15 52 -28 56 -28 9 0 183 -74 213 -90 10 -6
25 -10 33 -10 8 0 15 -4 15 -9 0 -10 39 -3 57 11 7 5 16 7 21 4 5 -3 26 9 45
28 20 19 39 31 42 27 4 -3 5 -1 4 4 -5 16 21 56 32 50 5 -4 8 -1 7 7 -2 7 3
12 10 10 8 -1 11 2 7 8 -3 5 0 13 8 16 8 3 18 15 21 27 3 12 8 18 12 14 4 -4
12 3 19 16 6 12 17 21 24 19 7 -1 10 2 7 7 -8 12 39 63 48 53 4 -4 6 -2 5 3
-4 10 16 37 59 81 12 13 22 27 22 31 0 14 61 63 71 57 5 -3 6 2 3 10 -6 16 19
49 30 39 3 -4 6 0 6 8 0 9 14 28 32 45 17 16 28 23 23 15 -6 -10 -2 -10 16 2
13 8 31 13 39 12 20 -4 73 -14 113 -21 17 -3 48 -7 67 -9 60 -7 140 -24 160
-35 10 -5 22 -20 25 -32 7 -21 194 -495 214 -543 52 -120 63 -136 109 -159 33
-16 54 -21 72 -15 39 11 52 10 44 -4 -5 -8 -2 -8 9 2 9 7 17 11 17 7 0 -3 11
-1 25 4 18 7 25 6 25 -3 0 -8 3 -9 8 -1 10 15 51 24 58 13 4 -6 10 -6 17 0 11
8 79 20 156 26 15 1 32 4 37 7 5 3 21 5 37 4 15 -1 27 2 27 6 0 4 16 6 35 4
19 -1 35 1 35 6 0 4 7 8 16 8 14 0 15 -2 3 -17 -13 -17 -13 -17 7 -1 11 10 39
19 62 20 23 2 42 7 42 12 0 4 7 6 15 2 8 -3 14 0 12 7 -1 7 6 11 15 11 11 -1
14 4 11 14 -5 11 -3 13 8 7 8 -4 11 -5 7 -1 -3 4 0 22 7 39 15 37 25 87 40
212 4 33 9 69 11 80 3 11 7 40 10 65 3 25 8 52 11 60 4 8 5 19 4 23 0 4 3 36
9 71 5 35 11 76 12 90 1 14 5 26 8 26 4 0 4 14 2 31 -3 19 -1 29 5 26 5 -3 8
6 7 21 -2 40 13 73 38 80 11 3 45 18 75 34 30 16 59 26 65 22 7 -5 8 -2 3 6
-6 10 -3 12 14 7 13 -3 20 -3 17 0 -7 7 67 43 102 49 21 4 50 -6 76 -27 16
-13 97 -71 130 -94 16 -11 41 -29 56 -40 24 -17 87 -62 166 -115 23 -16 59
-42 102 -76 62 -47 126 -77 170 -78 24 -1 46 2 49 7 2 4 9 4 15 1 6 -4 8 -2 5
3 -4 6 4 18 17 26 18 12 26 13 37 4 11 -10 11 -9 1 5 -11 13 -9 19 9 32 12 8
26 13 31 10 5 -3 7 0 6 8 -2 7 3 12 10 10 6 -1 11 4 10 10 -2 7 5 12 14 12 10
-1 14 4 11 12 -3 8 0 14 5 14 6 0 27 16 48 35 20 19 43 35 51 35 8 0 12 4 9 9
-3 5 1 14 9 21 8 7 15 9 15 6 0 -4 7 -1 15 8 8 8 15 20 15 27 0 7 3 10 6 6 4
-3 15 4 26 16 11 12 16 16 12 8 -4 -8 16 9 44 37 28 29 59 52 67 52 9 0 13 5
10 10 -6 9 7 14 27 11 4 0 4 7 1 16 -5 13 -2 15 11 10 9 -4 15 -3 11 2 -7 12
5 42 14 36 4 -2 7 24 6 58 -2 48 -11 80 -40 142 -35 77 -59 130 -93 205 -8 19
-30 67 -47 105 -39 84 -72 157 -92 205 -8 19 -19 43 -24 52 -12 23 -12 51 1
43 6 -4 7 1 3 10 -4 11 3 25 20 39 15 13 24 26 20 29 -3 4 0 14 8 23 7 9 14
22 15 30 1 8 15 27 31 42 15 15 29 34 31 41 3 15 31 40 45 41 5 0 5 -5 1 -12
-5 -7 -3 -8 6 -3 7 4 45 7 84 6 86 -3 97 -4 115 -15 10 -6 12 -5 7 2 -5 8 3
10 26 7 55 -7 317 -17 413 -16 116 2 135 3 135 14 0 4 5 5 12 1 6 -4 8 -3 5 3
-3 5 6 23 21 40 16 16 26 35 24 41 -2 7 0 12 5 12 5 0 10 9 11 20 4 43 6 48
19 43 7 -3 13 -10 13 -16 0 -6 3 -7 7 -4 3 4 15 0 25 -10 10 -9 18 -13 18 -9
0 4 9 -1 19 -11 18 -17 80 -39 126 -46 11 -1 25 -6 30 -9 12 -8 291 -3 345 5
19 3 51 8 70 11 19 2 53 8 75 12 22 4 48 7 58 8 9 0 17 3 17 7 0 4 8 6 18 4 9
-1 23 2 30 8 6 5 12 6 12 3 0 -4 8 -2 18 3 9 5 31 11 47 14 17 3 53 12 80 22
66 21 69 22 78 23 4 1 29 13 54 28 46 25 81 61 75 77 -1 4 3 7 8 7 6 0 8 13 5
32 -6 34 -11 42 -26 44 -5 1 -10 2 -11 4 -2 1 -12 3 -23 5 -11 2 -29 5 -40 8
-11 3 -56 12 -100 22 -44 9 -109 22 -145 30 -36 8 -78 17 -95 19 -16 2 -30 5
-30 6 0 2 -9 4 -20 6 -56 9 -73 12 -110 19 -21 5 -51 9 -65 10 -96 7 -190 120
-216 260 -11 64 -11 95 0 95 7 0 7 3 0 8 -12 7 -12 158 -1 212 3 14 8 41 11
60 10 61 18 92 34 133 7 16 12 32 12 36 0 4 9 17 20 29 12 12 18 22 15 22 -7
0 27 32 61 56 26 19 60 31 114 40 8 2 20 -2 27 -8 9 -7 13 -7 13 0 0 11 18 11
38 -1 7 -5 22 -10 35 -12 12 -2 36 -7 52 -10 17 -4 40 -6 53 -6 12 0 22 -3 22
-8 0 -4 10 -7 23 -7 12 1 27 0 32 -3 12 -7 30 -11 73 -16 18 -2 36 -6 41 -9 5
-3 26 -8 46 -12 21 -3 47 -8 59 -11 11 -3 30 -6 41 -8 11 -2 20 -4 20 -5 0 -1
7 -3 16 -5 8 -1 55 -10 103 -20 48 -10 89 -15 92 -12 8 8 9 59 0 94 -7 32 -88
124 -119 136 -9 3 -17 10 -17 15 0 5 -13 15 -30 22 -16 7 -30 16 -30 21 0 5
-7 9 -15 9 -8 0 -15 5 -15 10 0 6 -7 10 -15 10 -8 0 -15 5 -15 10 0 6 -7 10
-15 10 -8 0 -15 4 -15 9 0 5 -8 11 -17 14 -21 7 -72 37 -90 54 -7 6 -23 15
-36 19 -12 4 -24 9 -27 13 -3 3 -45 26 -95 50 -49 23 -98 47 -107 52 -10 5
-25 9 -33 9 -8 0 -15 5 -15 10 0 6 -10 10 -23 10 -12 0 -34 8 -47 17 -14 10
-26 16 -28 15 -3 -4 -64 9 -77 16 -5 3 -22 7 -39 9 -16 2 -41 6 -55 9 -38 9
-193 14 -205 7 -5 -4 -21 -8 -35 -9 -45 -5 -59 -9 -75 -23 -9 -7 -16 -9 -16
-3 0 11 51 48 62 44 5 -1 7 1 6 6 -1 4 4 21 11 37 19 46 18 74 -2 145 -11 36
-39 144 -64 240 -24 96 -49 191 -54 210 -60 218 -66 230 -118 255 -32 15 -81
18 -414 20 -335 3 -380 5 -397 20 -28 25 -108 167 -113 200 -5 32 43 132 57
118 4 -4 4 1 0 11 -5 14 -4 17 5 12 6 -4 11 -4 10 1 -4 20 14 72 24 66 6 -4 7
-1 2 7 -4 7 -4 15 1 19 5 3 17 22 27 41 10 19 31 60 47 90 16 30 30 61 30 68
0 7 5 10 12 6 6 -4 8 -3 5 3 -8 13 68 159 81 156 6 -1 9 5 7 15 -1 9 2 23 8
31 21 25 28 105 14 141 -13 31 -44 61 -345 339 -21 18 -62 57 -92 86 -101 96
-147 125 -193 125 -50 -1 -80 -16 -246 -127 -35 -24 -67 -43 -71 -43 -4 0 -28
-16 -53 -35 -25 -19 -49 -35 -52 -35 -4 0 -57 -33 -119 -74 -160 -107 -153
-105 -220 -67 -30 18 -63 34 -73 35 -31 6 -93 47 -105 69 -6 12 -12 40 -14 62
-3 42 -14 168 -20 220 -2 17 -5 50 -8 75 -2 25 -6 72 -10 105 -9 89 -16 172
-21 228 -7 81 -37 130 -93 155 -26 11 -63 23 -82 26 -19 4 -46 8 -60 11 -14 3
-50 9 -80 15 -30 6 -66 12 -80 15 -33 7 -127 23 -170 30 -19 3 -66 12 -105 20
-112 22 -138 24 -177 11z m-39 -1610 c6 -4 30 -9 54 -11 23 -2 65 -9 92 -15
28 -5 61 -13 75 -15 14 -3 32 -8 40 -11 8 -3 26 -8 40 -10 21 -4 78 -22 130
-41 8 -3 22 -7 30 -9 16 -3 31 -10 111 -47 31 -15 59 -27 63 -27 10 0 158 -82
154 -86 -2 -1 -109 -6 -238 -9 -129 -4 -264 -8 -300 -11 -36 -2 -153 -6 -260
-9 -107 -2 -244 -7 -305 -10 -247 -13 -288 -14 -465 -20 -102 -3 -196 -7 -208
-10 -13 -2 -103 -5 -200 -5 -243 -1 -221 -3 -192 17 14 9 31 23 38 29 6 7 22
16 34 20 12 4 28 13 36 21 8 8 21 12 29 9 8 -3 12 -2 8 3 -3 5 9 12 26 16 17
4 28 9 25 13 -8 8 75 46 101 46 12 0 21 2 20 5 -1 4 0 6 3 6 3 0 18 8 33 18
15 9 27 15 27 11 0 -4 7 -1 15 6 8 7 22 10 30 6 9 -3 13 -2 10 3 -5 9 0 12 60
27 17 4 37 9 45 11 8 3 24 5 35 6 11 1 23 7 27 13 4 6 23 10 42 9 19 -1 33 2
30 7 -3 4 3 8 13 9 21 1 32 3 105 19 29 6 85 14 123 17 39 3 72 7 73 8 7 7
380 -3 391 -9z m3259 -1610 c-7 -8 -15 -12 -17 -11 -5 6 10 25 20 25 5 0 4 -6
-3 -14z m-28 -17 c0 -5 -4 -8 -9 -5 -5 3 -11 -1 -15 -9 -3 -8 -13 -15 -22 -15
-10 0 -14 -3 -11 -6 4 -4 -8 -20 -26 -35 -17 -16 -28 -29 -24 -29 4 0 -3 -11
-17 -24 -15 -13 -26 -28 -26 -34 0 -6 -4 -12 -10 -14 -5 -1 -31 -24 -57 -49
-73 -70 -222 -167 -245 -161 -5 1 -8 -2 -8 -8 0 -5 -8 -10 -18 -10 -10 0 -22
-4 -27 -9 -6 -5 -19 -12 -31 -15 -20 -6 -21 -3 -18 41 1 30 7 47 14 45 6 -1 9
1 6 6 -6 10 23 39 65 65 20 12 29 13 38 4 9 -9 11 -8 6 5 -5 13 4 22 37 39 24
13 46 22 51 21 4 -1 7 3 7 8 0 6 7 10 15 10 8 0 15 4 15 10 0 5 11 12 25 16
14 3 25 11 25 16 0 6 9 8 20 5 11 -3 18 -1 15 3 -6 9 34 36 48 32 4 -1 7 2 7
6 0 5 19 18 43 30 23 12 58 32 77 46 39 28 50 31 50 15z m-1504 -420 c3 -6 11
-6 17 -1 24 17 41 7 45 -27 8 -73 4 -76 -105 -78 -213 -6 -311 -11 -322 -17
-6 -4 -11 -3 -11 3 0 7 -8 7 -23 2 -14 -5 -30 -5 -40 0 -9 6 -17 6 -17 2 0 -4
-35 -9 -78 -9 -73 -2 -257 -8 -507 -19 -60 -3 -172 -7 -247 -9 -76 -3 -142 -7
-147 -10 -5 -4 -12 -2 -16 4 -4 6 -11 7 -17 4 -11 -7 -48 -9 -311 -18 -70 -2
-131 -6 -134 -10 -3 -3 -14 -1 -24 5 -11 5 -19 6 -19 2 0 -4 -53 -9 -118 -10
-107 -2 -248 -7 -502 -18 -52 -2 -165 -6 -250 -10 -85 -3 -211 -8 -280 -11
-69 -2 -174 -6 -235 -9 -247 -11 -427 -17 -550 -18 l-130 -2 0 50 0 50 60 2
c37 1 63 -3 67 -10 6 -9 8 -9 8 0 0 9 27 12 93 12 93 0 127 4 149 17 7 5 8 3
3 -7 -7 -11 -6 -12 6 -3 8 7 33 11 56 10 22 0 39 2 37 6 -2 3 23 5 55 5 33 -1
58 1 56 4 -4 5 89 8 422 12 68 1 123 5 123 8 0 3 53 6 118 6 202 2 306 6 333
13 15 4 32 4 39 0 7 -4 26 -4 41 0 17 5 31 5 34 -1 4 -5 13 -5 24 1 10 5 110
12 222 15 112 3 258 8 324 10 66 2 197 6 290 9 94 2 177 8 186 11 10 4 20 2
23 -4 4 -6 18 -6 39 0 40 11 40 11 31 -3 -6 -10 -5 -10 7 -1 18 15 178 23 203
10 11 -5 16 -5 13 0 -4 6 39 9 108 9 63 -1 115 2 115 6 0 3 21 6 48 6 103 0
485 12 489 15 8 9 193 5 199 -4z m-175 -974 c-10 -16 -27 -46 -37 -65 -10 -19
-30 -49 -44 -67 -14 -17 -36 -48 -50 -68 -65 -94 -163 -208 -245 -286 -123
-117 -171 -159 -180 -159 -6 0 -18 -9 -27 -20 -10 -11 -42 -34 -73 -51 -30
-17 -55 -35 -55 -40 0 -5 -8 -9 -17 -9 -9 0 -24 -6 -32 -14 -24 -22 -159 -91
-258 -131 -48 -21 -97 -41 -108 -45 -67 -28 -318 -88 -400 -96 -33 -3 -73 -9
-90 -13 -35 -9 -348 -7 -415 3 -25 4 -79 11 -120 17 -41 5 -84 14 -95 18 -11
5 -56 16 -100 26 -44 9 -90 23 -102 31 -12 8 -30 14 -40 14 -10 0 -54 16 -98
36 -44 20 -89 38 -100 42 -11 3 -57 27 -103 54 -46 26 -87 48 -90 48 -4 0 -27
16 -51 35 -24 19 -47 35 -51 35 -18 0 -183 141 -285 244 -98 98 -216 245 -282
351 l-22 35 62 1 c101 1 241 6 252 9 6 1 15 1 20 0 27 -6 51 -4 57 5 5 6 8 5
8 -3 0 -8 5 -10 12 -6 7 4 62 9 123 10 60 1 200 5 310 9 450 13 555 17 660 19
61 1 115 5 121 9 6 3 14 4 18 0 8 -9 56 -10 56 -2 0 5 30 4 67 -2 4 -1 10 0
13 1 3 1 52 4 110 5 342 11 476 15 655 20 371 10 444 13 454 20 6 3 11 1 11
-5 0 -6 5 -8 10 -5 6 4 112 8 237 11 124 2 228 5 229 7 1 1 25 2 53 2 l50 1
-18 -31z"/>
</g>
</svg>
